#N canvas 777 316 522 437 10;
#X obj 191 101 f \$0;
#X msg 168 130 set \$1;
#X msg 168 158 1010;
#X text 193 157 <- \$0 value for this patch;
#X obj 41 215 r global;
#X text 102 14 Open this patch multiple times to see how \$0 works.
;
#X obj 227 131 s global;
#X obj 47 334 list;
#X msg 41 289 Hello from Patch;
#X obj 41 258 t b f;
#X floatatom 41 237 5 0 0 0 - - -;
#X msg 68 311 #\$1;
#X obj 47 362 s \$0-from_global;
#X obj 194 241 r \$0-from_global;
#X msg 306 264 set;
#X msg 244 324;
#X obj 194 287 list trim;
#X obj 191 74 t b b;
#X obj 191 50 loadbang;
#X obj 240 91 s \$0-clear;
#X obj 306 241 r \$0-clear;
#X obj 194 264 list prepend add;
#X obj 292 129 print dollarsign0;
#X text 150 199 This will store a message for each copy of this patch
that is opened after this one:;
#X connect 0 0 1 0;
#X connect 0 0 6 0;
#X connect 0 0 22 0;
#X connect 1 0 2 0;
#X connect 4 0 10 0;
#X connect 7 0 12 0;
#X connect 8 0 7 0;
#X connect 9 0 8 0;
#X connect 9 1 11 0;
#X connect 10 0 9 0;
#X connect 11 0 7 1;
#X connect 13 0 21 0;
#X connect 14 0 15 0;
#X connect 16 0 15 0;
#X connect 17 0 0 0;
#X connect 17 1 19 0;
#X connect 18 0 17 0;
#X connect 20 0 14 0;
#X connect 21 0 16 0;
