#N canvas 724 360 803 472 10;
#X obj 24 18 piano;
#X obj 223 365 channels~;
#X obj 253 271 uzi 16;
#X msg 286 291 init \$1 stereo subtractive_synth;
#X obj 144 270 dpoly 16;
#X text 31 268 dynamic [poly] ->;
#X obj 144 293 pack 0 0 0;
#X text 296 271 <- initialize voices;
#X obj 329 224 bng 15 250 50 0 empty empty Re-Initialize 17 7 0 10
-262144 -1 -1;
#X msg 88 327 view;
#X obj 234 395 dac~;
#N canvas 241 69 1393 841 subtractive_synth_interface 1;
#X floatatom 127 288 5 0 0 1 semi - -;
#X msg 127 308 osc1 semi \$1;
#X floatatom 133 345 5 0 0 1 cent - -;
#X msg 133 365 osc1 cent \$1;
#X floatatom 141 428 5 0 0 1 phase - -;
#X text 139 388 phase offset (0 to 1);
#X msg 501 408 x;
#X msg 525 408 -;
#X msg 549 408 o;
#X obj 501 428 symbol;
#X text 511 387 Synth mode;
#X obj 335 336 sine_table;
#X obj 347 358 triangle_table;
#X obj 358 378 sawtooth_table;
#X obj 375 398 square_table;
#X obj 451 306 loadfloat 1;
#X msg 501 454 osc1 mode \$1;
#X obj 335 315 bng 15 250 50 0 empty empty empty 17 7 0 10 -262144
-1 -1;
#X obj 354 315 bng 15 250 50 0 empty empty empty 17 7 0 10 -262144
-1 -1;
#X obj 373 315 bng 15 250 50 0 empty empty empty 17 7 0 10 -262144
-1 -1;
#X obj 392 316 bng 15 250 50 0 empty empty empty 17 7 0 10 -262144
-1 -1;
#X text 333 292 Set waveform;
#X obj 48 340 tgl 15 0 empty empty empty 17 7 0 10 -262144 -1 -1 0
1;
#X msg 48 371 osc1 on \$1;
#X obj 127 476 s \$0-methods;
#X text 288 265 OSC 1:;
#X floatatom 823 604 5 0 0 0 - - -;
#X obj 649 521 guiadsr;
#X msg 823 626 noise filter \$1;
#X floatatom 834 530 5 0 0 0 - - -;
#X msg 834 552 noise amount \$1;
#X obj 720 656 s \$0-methods;
#X obj 995 530 hsl 128 15 0 127 0 0 empty empty empty -2 -8 0 10 -262144
-1 -1 0 1;
#X floatatom 992 554 5 0 0 0 - - -;
#X msg 992 577 filter frequency \$1;
#X floatatom 155 520 5 0 0 1 semi - -;
#X floatatom 161 577 5 0 0 1 cent - -;
#X msg 519 632 x;
#X msg 543 632 -;
#X msg 567 632 o;
#X obj 519 652 symbol;
#X text 529 611 Synth mode;
#X obj 363 568 sine_table;
#X obj 375 590 triangle_table;
#X obj 386 610 sawtooth_table;
#X obj 403 630 square_table;
#X obj 479 538 loadfloat 1;
#X obj 363 547 bng 15 250 50 0 empty empty empty 17 7 0 10 -262144
-1 -1;
#X obj 382 547 bng 15 250 50 0 empty empty empty 17 7 0 10 -262144
-1 -1;
#X obj 401 547 bng 15 250 50 0 empty empty empty 17 7 0 10 -262144
-1 -1;
#X obj 420 548 bng 15 250 50 0 empty empty empty 17 7 0 10 -262144
-1 -1;
#X text 361 524 Set waveform;
#X obj 76 572 tgl 15 0 empty empty empty 17 7 0 10 -262144 -1 -1 0
1;
#X obj 155 698 s \$0-methods;
#X text 74 553 on/off;
#X floatatom 703 292 5 0 0 1 semi - -;
#X floatatom 709 349 5 0 0 1 cent - -;
#X msg 1065 401 x;
#X msg 1089 401 -;
#X msg 1113 401 o;
#X obj 1065 421 symbol;
#X text 1075 380 Synth mode;
#X obj 911 340 sine_table;
#X obj 923 362 triangle_table;
#X obj 934 382 sawtooth_table;
#X obj 951 402 square_table;
#X obj 1027 310 loadfloat 1;
#X obj 911 319 bng 15 250 50 0 empty empty empty 17 7 0 10 -262144
-1 -1;
#X obj 930 319 bng 15 250 50 0 empty empty empty 17 7 0 10 -262144
-1 -1;
#X obj 949 319 bng 15 250 50 0 empty empty empty 17 7 0 10 -262144
-1 -1;
#X obj 968 320 bng 15 250 50 0 empty empty empty 17 7 0 10 -262144
-1 -1;
#X text 909 296 Set waveform;
#X obj 624 344 tgl 15 0 empty empty empty 17 7 0 10 -262144 -1 -1 0
1;
#X obj 703 470 s \$0-methods;
#X text 622 325 on/off;
#X text 316 497 OSC 2:;
#X msg 155 540 osc2 semi \$1;
#X msg 161 597 osc2 cent \$1;
#X msg 76 603 osc2 on \$1;
#X msg 335 446 osc1 set \$1;
#X msg 519 678 osc2 mode \$1;
#X msg 624 375 osc3 on \$1;
#X msg 703 312 osc3 semi \$1;
#X msg 709 369 osc3 cent \$1;
#X msg 1065 447 osc3 mode \$1;
#X text 864 269 OSC 3:;
#X text 706 498 NOISE:;
#X obj 992 602 s \$0-methods;
#X obj 211 101 guiadsr;
#X text 250 76 ADSR - Volume;
#X obj 228 198 s \$0-methods;
#X obj 417 111 vsl 15 80 0 1 0 0 empty empty empty 0 -9 0 10 -262144
-1 -1 0 1;
#X obj 445 111 vsl 15 80 0 1 0 0 empty empty empty 0 -9 0 10 -262144
-1 -1 0 1;
#X obj 474 111 vsl 15 80 0 1 0 0 empty empty empty 0 -9 0 10 -262144
-1 -1 0 1;
#X msg 417 225 mix \$1 \$2 \$3;
#N canvas 529 250 242 141 hotpack 0;
#X obj 16 14 inlet;
#X obj 85 15 inlet;
#X obj 150 16 inlet;
#X obj 57 68 pack 0 0 0;
#X obj 70 39 t b f;
#X obj 131 37 t b f;
#X obj 57 93 outlet;
#X connect 0 0 3 0;
#X connect 1 0 4 0;
#X connect 2 0 5 0;
#X connect 3 0 6 0;
#X connect 4 0 3 0;
#X connect 4 1 3 1;
#X connect 5 0 3 0;
#X connect 5 1 3 2;
#X restore 417 205 pd hotpack;
#X obj 417 246 s \$0-methods;
#X text 428 86 MIX:;
#X floatatom 379 156 5 0 0 0 - - -;
#X floatatom 379 175 5 0 0 0 - - -;
#X floatatom 380 195 5 0 0 0 - - -;
#X floatatom 1198 671 5 0 0 0 - - -;
#X msg 1198 694 waveform_length \$1;
#X obj 1198 716 s \$0-methods;
#X obj 1185 319 vsl 15 128 0 127 0 0 empty empty empty 0 -9 0 10 -262144
-1 -1 0 1;
#X floatatom 1213 482 5 0 0 0 - - -;
#X obj 1185 536 s \$0-methods;
#X text 1180 290 PITCHBEND:;
#X obj 335 426 symbol;
#X obj 363 652 symbol;
#X msg 363 672 osc2 set \$1;
#X obj 911 425 symbol;
#X obj 564 115 vsl 15 80 0 1 0 0 empty empty empty 0 -9 0 10 -262144
-1 -1 0 1;
#X obj 592 115 vsl 15 80 0 1 0 0 empty empty empty 0 -9 0 10 -262144
-1 -1 0 1;
#X obj 621 115 vsl 15 80 0 1 0 0 empty empty empty 0 -9 0 10 -262144
-1 -1 0 1;
#N canvas 529 250 242 141 hotpack 0;
#X obj 16 14 inlet;
#X obj 85 15 inlet;
#X obj 150 16 inlet;
#X obj 57 68 pack 0 0 0;
#X obj 70 39 t b f;
#X obj 131 37 t b f;
#X obj 57 93 outlet;
#X connect 0 0 3 0;
#X connect 1 0 4 0;
#X connect 2 0 5 0;
#X connect 3 0 6 0;
#X connect 4 0 3 0;
#X connect 4 1 3 1;
#X connect 5 0 3 0;
#X connect 5 1 3 2;
#X restore 564 209 pd hotpack;
#X obj 564 250 s \$0-methods;
#X floatatom 517 145 5 0 0 0 - - -;
#X floatatom 518 164 5 0 0 0 - - -;
#X floatatom 519 184 5 0 0 0 - - -;
#X msg 564 229 pan \$1 \$2 \$3;
#X text 575 90 PAN:;
#X msg 228 174 adsr \$1 \$2 \$3 \$4;
#X obj 827 581 hsl 128 15 0 127 0 0 empty empty empty -2 -8 0 10 -262144
-1 -1 0 1;
#X obj 837 512 hsl 80 15 0 1 0 0 empty empty empty -2 -8 0 10 -262144
-1 -1 0 1;
#N canvas 586 505 450 300 LFOs 0;
#X msg 35 198 filter frequency \$1;
#X obj 34 69 osc~;
#X floatatom 34 29 5 0 0 0 - - -;
#X obj 35 93 view~;
#X obj 36 126 + 1;
#X obj 35 147 / 2;
#X obj 36 170 expscale 22050 2.5 1;
#X obj 37 258 s \$0-methods;
#X obj 87 222 tgl 15 0 empty empty empty 17 7 0 10 -262144 -1 -1 0
1;
#X obj 37 235 spigot;
#X text 26 14 Rate;
#X text 104 221 On;
#X obj 196 67 osc~;
#X floatatom 196 27 5 0 0 0 - - -;
#X obj 197 91 view~;
#X obj 198 124 + 1;
#X obj 197 145 / 2;
#X obj 199 256 s \$0-methods;
#X obj 249 220 tgl 15 0 empty empty empty 17 7 0 10 -262144 -1 -1 0
1;
#X obj 199 233 spigot;
#X text 188 12 Rate;
#X text 266 219 On;
#X msg 197 196 osc1 phase \$1;
#X obj 198 168 expscale 1 2.5 1;
#X text 45 47 Filter Frequency;
#X text 205 47 OSC1 Phase;
#X connect 0 0 9 0;
#X connect 1 0 3 0;
#X connect 2 0 1 0;
#X connect 3 0 4 0;
#X connect 4 0 5 0;
#X connect 5 0 6 0;
#X connect 6 0 0 0;
#X connect 8 0 9 1;
#X connect 9 0 7 0;
#X connect 12 0 14 0;
#X connect 13 0 12 0;
#X connect 14 0 15 0;
#X connect 15 0 16 0;
#X connect 16 0 23 0;
#X connect 18 0 19 1;
#X connect 19 0 17 0;
#X connect 22 0 19 0;
#X connect 23 0 22 0;
#X restore 539 23 pd LFOs;
#N canvas 1261 68 450 300 ENVELOPES 0;
#X restore 593 23 pd ENVELOPES;
#X obj 36 719 r \$0-methods;
#X text 970 635 Programatically change the size of the array it reads
from. This can be also used to change the pulse-width of the waveform.
;
#X obj 253 295 loadbang;
#X obj 824 296 loadbang;
#X text 46 321 on/off;
#X obj 18 285 loadbang;
#X msg 649 590 noise adsr \$1 \$2 \$3 \$4;
#X text 491 72 Both 0-1:;
#X obj 32 49 loadbang;
#X msg 32 76 \; pd dsp 1 \;;
#X obj 27 151 hsl 80 15 0 1 0 0 empty empty empty -2 -8 0 10 -262144
-1 -1 0 1;
#X floatatom 24 170 5 0 0 0 - - -;
#X text 30 129 VOLUME:;
#X msg 23 189 volume \$1;
#X obj 23 211 s \$0-methods;
#X text 1007 506 FILTER (0-127):;
#X text 865 603 0 to 127;
#X obj 50 526 loadbang;
#X obj 562 309 loadbang;
#X obj 144 408 hsl 80 15 0 1 0 0 empty empty empty -2 -8 0 10 -262144
-1 -1 0 1;
#X msg 1185 459 pitchbend \$1;
#X msg 1213 507 pitchbend range \$1;
#X msg 141 448 osc1 phase \$1;
#X floatatom 721 426 5 0 0 1 phase - -;
#X text 719 386 phase offset (0 to 1);
#X obj 724 406 hsl 80 15 0 1 0 0 empty empty empty -2 -8 0 10 -262144
-1 -1 0 1;
#X msg 721 446 osc3 phase \$1;
#X floatatom 171 654 5 0 0 1 phase - -;
#X text 169 614 phase offset (0 to 1);
#X obj 174 634 hsl 80 15 0 1 0 0 empty empty empty -2 -8 0 10 -262144
-1 -1 0 1;
#X msg 171 674 osc2 phase \$1;
#X msg 911 445 osc3 set \$1;
#N canvas 286 424 450 300 presets 0;
#X restore 38 669 pd presets;
#X obj 600 277 loadfloat 10;
#X obj 34 744 outlet;
#X connect 0 0 1 0;
#X connect 1 0 24 0;
#X connect 2 0 3 0;
#X connect 3 0 24 0;
#X connect 4 0 149 0;
#X connect 6 0 9 0;
#X connect 7 0 9 0;
#X connect 8 0 9 0;
#X connect 9 0 16 0;
#X connect 11 0 108 0;
#X connect 12 0 108 0;
#X connect 13 0 108 0;
#X connect 14 0 108 0;
#X connect 15 0 12 1;
#X connect 15 0 13 1;
#X connect 15 0 14 1;
#X connect 16 0 24 0;
#X connect 17 0 11 0;
#X connect 18 0 12 0;
#X connect 19 0 13 0;
#X connect 20 0 14 0;
#X connect 22 0 23 0;
#X connect 23 0 24 0;
#X connect 26 0 28 0;
#X connect 27 0 133 0;
#X connect 28 0 31 0;
#X connect 29 0 30 0;
#X connect 30 0 31 0;
#X connect 32 0 33 0;
#X connect 33 0 34 0;
#X connect 34 0 87 0;
#X connect 35 0 76 0;
#X connect 36 0 77 0;
#X connect 37 0 40 0;
#X connect 38 0 40 0;
#X connect 39 0 40 0;
#X connect 40 0 80 0;
#X connect 42 0 109 0;
#X connect 43 0 109 0;
#X connect 44 0 109 0;
#X connect 45 0 109 0;
#X connect 46 0 43 1;
#X connect 46 0 44 1;
#X connect 46 0 45 1;
#X connect 47 0 42 0;
#X connect 48 0 43 0;
#X connect 49 0 44 0;
#X connect 50 0 45 0;
#X connect 52 0 78 0;
#X connect 55 0 82 0;
#X connect 56 0 83 0;
#X connect 57 0 60 0;
#X connect 58 0 60 0;
#X connect 59 0 60 0;
#X connect 60 0 84 0;
#X connect 62 0 111 0;
#X connect 63 0 111 0;
#X connect 64 0 111 0;
#X connect 65 0 111 0;
#X connect 66 0 63 1;
#X connect 66 0 64 1;
#X connect 66 0 65 1;
#X connect 67 0 62 0;
#X connect 68 0 63 0;
#X connect 69 0 64 0;
#X connect 70 0 65 0;
#X connect 72 0 81 0;
#X connect 76 0 53 0;
#X connect 77 0 53 0;
#X connect 78 0 53 0;
#X connect 79 0 24 0;
#X connect 80 0 53 0;
#X connect 81 0 73 0;
#X connect 82 0 73 0;
#X connect 83 0 73 0;
#X connect 84 0 73 0;
#X connect 88 0 122 0;
#X connect 91 0 95 0;
#X connect 91 0 98 0;
#X connect 92 0 95 1;
#X connect 92 0 99 0;
#X connect 93 0 95 2;
#X connect 93 0 100 0;
#X connect 94 0 96 0;
#X connect 95 0 94 0;
#X connect 101 0 102 0;
#X connect 102 0 103 0;
#X connect 104 0 147 0;
#X connect 105 0 148 0;
#X connect 108 0 79 0;
#X connect 109 0 110 0;
#X connect 110 0 53 0;
#X connect 111 0 158 0;
#X connect 112 0 115 0;
#X connect 112 0 117 0;
#X connect 113 0 115 1;
#X connect 113 0 118 0;
#X connect 114 0 115 2;
#X connect 114 0 119 0;
#X connect 115 0 120 0;
#X connect 120 0 116 0;
#X connect 122 0 90 0;
#X connect 123 0 26 0;
#X connect 124 0 29 0;
#X connect 127 0 161 0;
#X connect 129 0 17 0;
#X connect 130 0 67 0;
#X connect 132 0 22 0;
#X connect 133 0 31 0;
#X connect 135 0 136 0;
#X connect 137 0 138 0;
#X connect 138 0 140 0;
#X connect 140 0 141 0;
#X connect 144 0 52 0;
#X connect 145 0 72 0;
#X connect 146 0 4 0;
#X connect 147 0 106 0;
#X connect 148 0 106 0;
#X connect 149 0 24 0;
#X connect 150 0 153 0;
#X connect 152 0 150 0;
#X connect 153 0 73 0;
#X connect 154 0 157 0;
#X connect 156 0 154 0;
#X connect 157 0 53 0;
#X connect 158 0 73 0;
#X connect 160 0 56 0;
#X restore 485 230 pd subtractive_synth_interface;
#X obj 517 280 uzi 16;
#X obj 544 258 t b a;
#X floatatom 151 211 5 0 0 1 Number_of_Voices - -;
#X obj 328 202 loadbang;
#X obj 550 301 list;
#X obj 550 321 list trim;
#X text 489 210 Click for interface:;
#X text 588 280 <- send method to all voices;
#X connect 0 0 4 0;
#X connect 1 0 10 0;
#X connect 1 1 10 1;
#X connect 2 2 3 0;
#X connect 3 0 1 0;
#X connect 4 0 6 0;
#X connect 4 1 6 1;
#X connect 4 2 6 2;
#X connect 6 0 1 0;
#X connect 8 0 2 0;
#X connect 9 0 1 0;
#X connect 11 0 13 0;
#X connect 12 2 16 0;
#X connect 13 0 12 0;
#X connect 13 1 16 1;
#X connect 14 0 4 1;
#X connect 14 0 2 1;
#X connect 15 0 8 0;
#X connect 16 0 17 0;
#X connect 17 0 1 0;
