#N canvas 355 126 408 311 10;
#X obj 4 136 czero~;
#X obj 4 170 czero~;
#X obj 4 205 cpole~;
#X obj 4 245 cpole~;
#X obj 4 274 outlet~;
#X obj 4 76 *~;
#X obj 4 -1 inlet~;
#X obj 56 -1 inlet~ A1;
#X obj 126 -1 inlet~ A2;
#X obj 196 -1 inlet~ B0;
#X obj 266 -1 inlet~ B1;
#X obj 336 -1 inlet~ B2;
#N canvas 388 174 347 128 extract_gain 0;
#X obj 11 9 inlet~;
#X obj 11 90 outlet~;
#X obj 131 9 inlet~;
#X obj 271 9 inlet~;
#X obj 131 90 outlet~;
#X obj 271 90 outlet~;
#X obj 131 56 /~;
#X obj 271 56 /~;
#X connect 0 0 1 0;
#X connect 0 0 6 1;
#X connect 0 0 7 1;
#X connect 2 0 6 0;
#X connect 3 0 7 0;
#X connect 6 0 4 0;
#X connect 7 0 5 0;
#X restore 196 37 pd extract_gain;
#N canvas 447 164 220 177 get_zero_locations 0;
#X obj -12 1 inlet~;
#X obj 112 1 inlet~;
#N canvas 461 109 179 322 zero1 0;
#X obj 8 9 inlet~;
#X obj 70 6 inlet~;
#X obj 8 293 outlet~;
#X obj 101 293 outlet~;
#X obj 8 239 complex_div.mmb~;
#X obj 98 196 sig~ 2;
#X obj 70 126 sqrt~;
#X obj 70 101 *~;
#X obj 119 127 sqrt~;
#X obj 119 102 *~;
#X obj 134 78 abs~;
#X obj 85 42 <~ 0;
#X obj 85 71 ==~ 0;
#X obj 8 166 complex_add.mmb~;
#X connect 0 0 13 0;
#X connect 1 0 11 0;
#X connect 1 0 7 0;
#X connect 1 0 10 0;
#X connect 4 0 2 0;
#X connect 4 1 3 0;
#X connect 5 0 4 2;
#X connect 6 0 13 2;
#X connect 7 0 6 0;
#X connect 8 0 13 3;
#X connect 9 0 8 0;
#X connect 10 0 9 1;
#X connect 11 0 9 0;
#X connect 11 0 12 0;
#X connect 12 0 7 1;
#X connect 13 0 4 0;
#X connect 13 1 4 1;
#X restore -12 101 pd zero1;
#N canvas 477 175 181 252 zero2 0;
#X obj 4 2 inlet~;
#X obj 66 2 inlet~;
#X obj 4 220 outlet~;
#X obj 97 220 outlet~;
#X obj 4 193 complex_div.mmb~;
#X obj 94 160 sig~ 2;
#X obj 4 130 complex_sub.mmb~;
#X obj 66 105 sqrt~;
#X obj 66 84 *~;
#X obj 125 89 sqrt~;
#X obj 125 64 *~;
#X obj 140 42 abs~;
#X obj 81 31 <~ 0;
#X obj 81 63 ==~ 0;
#X connect 0 0 6 0;
#X connect 1 0 11 0;
#X connect 1 0 12 0;
#X connect 1 0 8 0;
#X connect 4 0 2 0;
#X connect 4 1 3 0;
#X connect 5 0 4 2;
#X connect 6 0 4 0;
#X connect 6 1 4 1;
#X connect 7 0 6 2;
#X connect 8 0 7 0;
#X connect 9 0 6 3;
#X connect 10 0 9 0;
#X connect 11 0 10 1;
#X connect 12 0 10 0;
#X connect 12 0 13 0;
#X connect 13 0 8 1;
#X restore 60 102 pd zero2;
#X obj -12 135 outlet~;
#X obj 37 135 outlet~;
#X obj 86 135 outlet~;
#X obj 135 135 outlet~;
#X obj -12 58 *~ -1;
#X obj 84 35 *~;
#X obj 97 58 -~;
#X obj 112 35 *~ 4;
#X connect 0 0 8 0;
#X connect 0 0 9 1;
#X connect 0 0 9 0;
#X connect 1 0 11 0;
#X connect 2 0 4 0;
#X connect 2 1 5 0;
#X connect 3 0 6 0;
#X connect 3 1 7 0;
#X connect 8 0 3 0;
#X connect 8 0 2 0;
#X connect 9 0 10 0;
#X connect 10 0 3 1;
#X connect 10 0 2 1;
#X connect 11 0 10 1;
#X restore 239 72 pd get_zero_locations;
#N canvas 448 187 272 184 get_pole_locations 0;
#X obj 6 5 inlet~;
#X obj 158 5 inlet~;
#X obj 6 145 outlet~;
#X obj 66 145 outlet~;
#X obj 126 145 outlet~;
#X obj 186 145 outlet~;
#N canvas 478 218 183 250 zero2 0;
#X obj 2 -1 inlet~;
#X obj 64 -1 inlet~;
#X obj 2 214 outlet~;
#X obj 95 214 outlet~;
#X obj 2 190 complex_div.mmb~;
#X obj 92 167 sig~ 2;
#X obj 2 137 complex_sub.mmb~;
#X obj 64 110 sqrt~;
#X obj 64 85 *~;
#X obj 117 82 sqrt~;
#X obj 117 57 *~;
#X obj 132 35 abs~;
#X obj 78 29 <~ 0;
#X obj 78 59 ==~ 0;
#X connect 0 0 6 0;
#X connect 1 0 8 0;
#X connect 1 0 11 0;
#X connect 1 0 12 0;
#X connect 4 0 2 0;
#X connect 4 1 3 0;
#X connect 5 0 4 2;
#X connect 6 0 4 0;
#X connect 6 1 4 1;
#X connect 7 0 6 2;
#X connect 8 0 7 0;
#X connect 9 0 6 3;
#X connect 10 0 9 0;
#X connect 11 0 10 1;
#X connect 12 0 10 0;
#X connect 12 0 13 0;
#X connect 13 0 8 1;
#X restore 75 105 pd zero2;
#X obj 65 39 *~;
#X obj 158 49 *~ 4;
#X obj 120 69 +~;
#X obj 6 41 *~ 1;
#N canvas 485 211 181 269 pole1 0;
#X obj 2 0 inlet~;
#X obj 64 -1 inlet~;
#X obj 2 224 outlet~;
#X obj 95 224 outlet~;
#X obj 2 200 complex_div.mmb~;
#X obj 92 177 sig~ 2;
#X obj 64 117 sqrt~;
#X obj 64 92 *~;
#X obj 79 70 ==~ 0;
#X obj 120 96 sqrt~;
#X obj 120 71 *~;
#X obj 135 45 abs~;
#X obj 79 34 <~ 0;
#X obj 2 147 complex_add.mmb~;
#X connect 0 0 13 0;
#X connect 1 0 7 0;
#X connect 1 0 11 0;
#X connect 1 0 12 0;
#X connect 4 0 2 0;
#X connect 4 1 3 0;
#X connect 5 0 4 2;
#X connect 6 0 13 2;
#X connect 7 0 6 0;
#X connect 8 0 7 1;
#X connect 9 0 13 3;
#X connect 10 0 9 0;
#X connect 11 0 10 1;
#X connect 12 0 10 0;
#X connect 12 0 8 0;
#X connect 13 0 4 0;
#X connect 13 1 4 1;
#X restore 6 104 pd pole1;
#X connect 0 0 7 1;
#X connect 0 0 7 0;
#X connect 0 0 10 0;
#X connect 1 0 8 0;
#X connect 6 0 4 0;
#X connect 6 1 5 0;
#X connect 7 0 9 0;
#X connect 8 0 9 1;
#X connect 9 0 6 1;
#X connect 9 0 11 1;
#X connect 10 0 6 0;
#X connect 10 0 11 0;
#X connect 11 0 2 0;
#X connect 11 1 3 0;
#X restore 108 157 pd get_pole_locations;
#X connect 0 0 1 0;
#X connect 0 1 1 1;
#X connect 1 0 2 0;
#X connect 1 1 2 1;
#X connect 2 0 3 0;
#X connect 2 1 3 1;
#X connect 3 0 4 0;
#X connect 5 0 0 0;
#X connect 6 0 5 0;
#X connect 7 0 14 0;
#X connect 8 0 14 1;
#X connect 9 0 12 0;
#X connect 10 0 12 1;
#X connect 11 0 12 2;
#X connect 12 0 5 1;
#X connect 12 1 13 0;
#X connect 12 2 13 1;
#X connect 13 0 0 2;
#X connect 13 1 0 3;
#X connect 13 2 1 2;
#X connect 13 3 1 3;
#X connect 14 0 2 2;
#X connect 14 1 2 3;
#X connect 14 2 3 2;
#X connect 14 3 3 3;
