#N canvas 604 28 718 349 10;
#N canvas 601 30 526 241 lowpass 0;
#X obj 437 151 == 0;
#X obj -10 143 /~ 2;
#X obj 357 120 +~ 1;
#X obj 278 125 sig~ 1;
#X obj 278 147 -~;
#X obj 206 141 *~ -2;
#X obj -10 64 sig~ 1;
#X obj -10 110 -~;
#X obj 308 61 max~ 0.01;
#X obj 293 103 /~;
#X obj 308 82 *~ 2;
#X obj -10 168 transistor~;
#X obj 62 168 transistor~;
#X obj 134 168 transistor~;
#X obj 206 168 transistor~;
#X obj 357 168 transistor~;
#X obj 278 168 transistor~;
#X obj 37 82 cos~;
#X obj 240 62 /~ 6.28319;
#X obj 240 81 sin~;
#X obj 37 7 inlet~ FREQ;
#X obj 308 8 inlet~ Q;
#X obj 437 128 r \$0-type;
#X obj -10 198 outlet~ B0;
#X obj 62 198 outlet~ B1;
#X obj 134 197 outlet~ B2;
#X obj 357 197 outlet~ A0;
#X obj 206 197 outlet~ A1;
#X obj 278 197 outlet~ A2;
#X obj 37 62 /~ 6.28319;
#X connect 0 0 16 1;
#X connect 0 0 15 1;
#X connect 0 0 14 1;
#X connect 0 0 13 1;
#X connect 0 0 12 1;
#X connect 0 0 11 1;
#X connect 1 0 11 0;
#X connect 1 0 13 0;
#X connect 2 0 15 0;
#X connect 3 0 4 0;
#X connect 4 0 16 0;
#X connect 5 0 14 0;
#X connect 6 0 7 0;
#X connect 7 0 1 0;
#X connect 7 0 12 0;
#X connect 8 0 10 0;
#X connect 9 0 2 0;
#X connect 9 0 4 1;
#X connect 10 0 9 1;
#X connect 11 0 23 0;
#X connect 12 0 24 0;
#X connect 13 0 25 0;
#X connect 14 0 27 0;
#X connect 15 0 26 0;
#X connect 16 0 28 0;
#X connect 17 0 7 1;
#X connect 17 0 5 0;
#X connect 18 0 19 0;
#X connect 19 0 9 0;
#X connect 20 0 18 0;
#X connect 20 0 29 0;
#X connect 21 0 8 0;
#X connect 22 0 0 0;
#X connect 29 0 17 0;
#X restore -87 79 pd lowpass;
#X obj 540 -30 inlet;
#N canvas 532 180 667 569 messages 0;
#X obj 97 63 inlet;
#X msg 96 314 0;
#X msg 130 315 1;
#X msg 165 315 2;
#X msg 202 314 3;
#X msg 238 315 4;
#X msg 275 315 5;
#X msg 313 316 6;
#X msg 353 315 7;
#X msg 389 316 8;
#X obj 211 57 loadbang;
#X msg 200 204 lowpass;
#X obj 257 104 samplerate~;
#X obj 97 260 route lowpass highpass resonant bandpass notch peaking
lowshelf highshelf allpass;
#X obj 122 108 list append \$1;
#X msg 122 151 \$1;
#X obj 210 81 t b b b;
#X obj 257 127 s \$0-fs;
#X obj 180 390 s \$0-type;
#X connect 0 0 13 0;
#X connect 1 0 18 0;
#X connect 2 0 18 0;
#X connect 3 0 18 0;
#X connect 4 0 18 0;
#X connect 5 0 18 0;
#X connect 6 0 18 0;
#X connect 7 0 18 0;
#X connect 8 0 18 0;
#X connect 9 0 18 0;
#X connect 10 0 16 0;
#X connect 11 0 13 0;
#X connect 12 0 17 0;
#X connect 13 0 1 0;
#X connect 13 1 2 0;
#X connect 13 2 3 0;
#X connect 13 3 4 0;
#X connect 13 4 5 0;
#X connect 13 5 6 0;
#X connect 13 6 7 0;
#X connect 13 7 8 0;
#X connect 13 8 9 0;
#X connect 14 0 15 0;
#X connect 15 0 13 0;
#X connect 16 0 14 0;
#X connect 16 1 11 0;
#X connect 16 2 12 0;
#X restore 540 -5 pd messages;
#X text 77 265 based on The Audio EQ Cookbook by Robert Bristow-Johnson
;
#N canvas 603 33 532 243 highpass 0;
#X obj 3 142 /~ 2;
#X obj 374 151 +~ 1;
#X obj 291 122 sig~ 1;
#X obj 291 148 -~;
#X obj 219 150 *~ -2;
#X obj 345 43 max~ 0.01;
#X obj 3 101 +~ 1;
#X obj 75 140 *~ -1;
#X obj 457 161 == 1;
#X obj 306 91 /~;
#X obj 345 65 *~ 2;
#X obj 3 178 transistor~;
#X obj 75 178 transistor~;
#X obj 147 178 transistor~;
#X obj 219 178 transistor~;
#X obj 374 178 transistor~;
#X obj 291 178 transistor~;
#X obj 3 40 /~ 6.28319;
#X obj 3 59 cos~;
#X obj 271 45 /~ 6.28319;
#X obj 271 64 sin~;
#X obj 3 -5 inlet~ FREQUENCY;
#X obj 345 21 inlet~ Q;
#X obj 457 139 r \$0-type;
#X obj 3 207 outlet~ B0;
#X obj 75 207 outlet~ B1;
#X obj 147 207 outlet~ B2;
#X obj 374 207 outlet~ A0;
#X obj 219 207 outlet~ A1;
#X obj 291 207 outlet~ A2;
#X connect 0 0 11 0;
#X connect 0 0 13 0;
#X connect 1 0 15 0;
#X connect 2 0 3 0;
#X connect 3 0 16 0;
#X connect 4 0 14 0;
#X connect 5 0 10 0;
#X connect 6 0 0 0;
#X connect 6 0 7 0;
#X connect 7 0 12 0;
#X connect 8 0 16 1;
#X connect 8 0 15 1;
#X connect 8 0 14 1;
#X connect 8 0 13 1;
#X connect 8 0 12 1;
#X connect 8 0 11 1;
#X connect 9 0 1 0;
#X connect 9 0 3 1;
#X connect 10 0 9 1;
#X connect 11 0 24 0;
#X connect 12 0 25 0;
#X connect 13 0 26 0;
#X connect 14 0 28 0;
#X connect 15 0 27 0;
#X connect 16 0 29 0;
#X connect 17 0 18 0;
#X connect 18 0 6 0;
#X connect 18 0 4 0;
#X connect 19 0 20 0;
#X connect 20 0 9 0;
#X connect 21 0 17 0;
#X connect 21 0 19 0;
#X connect 22 0 5 0;
#X connect 23 0 8 0;
#X restore -20 79 pd highpass;
#N canvas 506 26 564 330 notch 0;
#X obj 413 245 +~ 1;
#X obj 331 206 sig~ 1;
#X obj 331 245 -~;
#X obj 458 25 max~ 0.01;
#X obj 494 251 == 4;
#X obj 6 230 sig~ 1;
#X obj 6 268 transistor~;
#X obj 86 268 transistor~;
#X obj 168 268 transistor~;
#X obj 249 268 transistor~;
#X obj 413 268 transistor~;
#X obj 331 268 transistor~;
#X obj 86 230 *~ -2;
#X obj 428 183 sinh~;
#X obj 413 206 *~;
#X obj 443 137 /~;
#X obj 199 73 sig~ 0.346574;
#X obj 428 160 *~;
#X obj 443 114 *~;
#X obj 86 187 /~ 6.28319;
#X obj 86 206 cos~;
#X obj 132 73 /~ 6.28319;
#X obj 132 92 sin~;
#X obj 494 227 r \$0-type;
#X obj 86 3 inlet~ FREQUENCY;
#X obj 458 5 inlet~ Q;
#X obj 6 297 outlet~ B0;
#X obj 86 297 outlet~ B1;
#X obj 168 297 outlet~ B2;
#X obj 249 297 outlet~ A1;
#X obj 331 297 outlet~ A2;
#X obj 413 297 outlet~ A0;
#X connect 0 0 10 0;
#X connect 1 0 2 0;
#X connect 2 0 11 0;
#X connect 3 0 18 1;
#X connect 4 0 11 1;
#X connect 4 0 9 1;
#X connect 4 0 10 1;
#X connect 4 0 8 1;
#X connect 4 0 7 1;
#X connect 4 0 6 1;
#X connect 5 0 6 0;
#X connect 5 0 8 0;
#X connect 6 0 26 0;
#X connect 7 0 27 0;
#X connect 8 0 28 0;
#X connect 9 0 29 0;
#X connect 10 0 31 0;
#X connect 11 0 30 0;
#X connect 12 0 9 0;
#X connect 12 0 7 0;
#X connect 13 0 14 1;
#X connect 14 0 2 1;
#X connect 14 0 0 0;
#X connect 15 0 17 1;
#X connect 16 0 17 0;
#X connect 17 0 13 0;
#X connect 18 0 15 0;
#X connect 19 0 20 0;
#X connect 20 0 12 0;
#X connect 21 0 22 0;
#X connect 22 0 15 1;
#X connect 22 0 14 0;
#X connect 23 0 4 0;
#X connect 24 0 18 0;
#X connect 24 0 19 0;
#X connect 24 0 21 0;
#X connect 25 0 3 0;
#X restore 199 79 pd notch;
#N canvas 450 26 547 283 peaking 0;
#X obj 373 -50 +~ 1;
#X obj 293 -75 sig~ 1;
#X obj 293 -46 -~;
#X obj 197 -181 max~ 0.01;
#X obj 149 -93 sig~ 1;
#X obj 475 -38 == 5;
#X obj 85 -91 *~;
#X obj 373 -72 /~;
#X obj 149 -49 -~;
#X obj 5 -61 +~ 1;
#X obj 77 -134 *~ -2;
#X obj 182 -134 /~;
#X obj 197 -162 *~ 2;
#X obj 258 -133 pow~;
#X obj 279 -223 /~ 40;
#X obj 258 -202 sig~ 10;
#X obj 5 -21 transistor~;
#X obj 77 -21 transistor~;
#X obj 149 -21 transistor~;
#X obj 221 -21 transistor~;
#X obj 373 -21 transistor~;
#X obj 293 -21 transistor~;
#X obj 77 -176 /~ 6.28319;
#X obj 77 -155 cos~;
#X obj 129 -218 /~ 6.28319;
#X obj 129 -199 sin~;
#X obj 475 -60 r \$0-type;
#X obj 77 -241 inlet~ FREQUENCY;
#X obj 197 -242 inlet~ Q;
#X obj 279 -242 inlet~ GAIN;
#X obj 5 8 outlet~ B0;
#X obj 77 8 outlet~ B1;
#X obj 149 8 outlet~ B2;
#X obj 221 7 outlet~ A1;
#X obj 293 7 outlet~ A2;
#X obj 373 8 outlet~ A0;
#X connect 0 0 20 0;
#X connect 1 0 2 0;
#X connect 2 0 21 0;
#X connect 3 0 12 0;
#X connect 4 0 8 0;
#X connect 5 0 21 1;
#X connect 5 0 19 1;
#X connect 5 0 20 1;
#X connect 5 0 18 1;
#X connect 5 0 17 1;
#X connect 5 0 16 1;
#X connect 6 0 8 1;
#X connect 6 0 9 0;
#X connect 7 0 2 1;
#X connect 7 0 0 0;
#X connect 8 0 18 0;
#X connect 9 0 16 0;
#X connect 10 0 19 0;
#X connect 10 0 17 0;
#X connect 11 0 6 0;
#X connect 11 0 7 0;
#X connect 12 0 11 1;
#X connect 13 0 7 1;
#X connect 13 0 6 1;
#X connect 14 0 13 1;
#X connect 15 0 13 0;
#X connect 16 0 30 0;
#X connect 17 0 31 0;
#X connect 18 0 32 0;
#X connect 19 0 33 0;
#X connect 20 0 35 0;
#X connect 21 0 34 0;
#X connect 22 0 23 0;
#X connect 23 0 10 0;
#X connect 24 0 25 0;
#X connect 25 0 11 0;
#X connect 26 0 5 0;
#X connect 27 0 22 0;
#X connect 27 0 24 0;
#X connect 28 0 3 0;
#X connect 29 0 14 0;
#X restore 254 79 pd peaking;
#N canvas 595 23 549 536 highshelf 0;
#X obj 175 -13 clip~ 0.001 1;
#X obj 35 422 transistor~;
#X obj 107 422 transistor~;
#X obj 179 422 transistor~;
#X obj 251 422 transistor~;
#X obj 395 422 transistor~;
#X obj 323 422 transistor~;
#X obj 120 216 *~;
#X obj 135 196 sqrt~;
#X obj 135 176 +~;
#X obj 175 159 *~ 2;
#X obj 135 156 *~;
#X obj 187 88 sig~ 1;
#X obj 135 75 *~;
#X obj 150 136 -~;
#X obj 150 116 /~;
#X obj 298 -13 /~ 40;
#X obj 277 12 sig~ 10;
#X obj 135 96 +~;
#X obj 61 87 /~ 6.28319;
#X obj 61 106 sin~;
#X obj 25 191 /~ 6.28319;
#X obj 25 210 cos~;
#X obj 35 394 *~;
#X obj 35 374 +~;
#X obj 35 314 +~ 1;
#X obj 50 334 *~;
#X obj 65 314 -~ 1;
#X obj 107 393 *~;
#X obj 107 313 -~ 1;
#X obj 122 333 +~ 1;
#X obj 122 353 *~;
#X obj 179 393 *~;
#X obj 179 373 -~;
#X obj 194 333 *~;
#X obj 194 313 -~ 1;
#X obj 179 293 +~ 1;
#X obj 410 352 +~ 1;
#X obj 440 312 -~ 1;
#X obj 425 332 *~;
#X obj 395 394 +~;
#X obj 251 333 -~ 1;
#X obj 266 353 *~;
#X obj 281 333 +~ 1;
#X obj 323 394 -~;
#X obj 323 342 +~ 1;
#X obj 338 321 *~;
#X obj 353 301 -~ 1;
#X obj 475 373 r \$0-type;
#X obj 25 -36 inlet~ FREQUENCY;
#X obj 175 -36 inlet~ Q;
#X obj 298 -35 inlet~ GAIN;
#X obj 35 452 outlet~ B0;
#X obj 107 452 outlet~ B1;
#X obj 179 451 outlet~ B2;
#X obj 395 451 outlet~ A0;
#X obj 251 451 outlet~ A1;
#X obj 323 451 outlet~ A2;
#X obj 277 34 pow~;
#X obj 277 216 *~ 1;
#X obj 475 405 == 7;
#X obj 35 354 +~;
#X obj 136 376 *~ -2;
#X obj 107 373 +~;
#X obj 179 353 +~;
#X obj 251 393 *~ 2;
#X obj 251 373 -~;
#X obj 323 367 -~;
#X obj 410 373 -~;
#X connect 0 0 15 1;
#X connect 1 0 52 0;
#X connect 2 0 53 0;
#X connect 3 0 54 0;
#X connect 4 0 56 0;
#X connect 5 0 55 0;
#X connect 6 0 57 0;
#X connect 7 0 24 1;
#X connect 7 0 33 1;
#X connect 7 0 44 1;
#X connect 7 0 40 0;
#X connect 8 0 7 1;
#X connect 9 0 8 0;
#X connect 10 0 9 1;
#X connect 11 0 9 0;
#X connect 12 0 14 1;
#X connect 12 0 15 0;
#X connect 12 0 18 1;
#X connect 13 0 18 0;
#X connect 14 0 11 1;
#X connect 15 0 14 0;
#X connect 16 0 58 1;
#X connect 17 0 58 0;
#X connect 18 0 11 0;
#X connect 19 0 20 0;
#X connect 20 0 7 0;
#X connect 21 0 22 0;
#X connect 22 0 26 0;
#X connect 22 0 31 1;
#X connect 22 0 34 1;
#X connect 22 0 39 0;
#X connect 22 0 42 0;
#X connect 22 0 46 0;
#X connect 23 0 1 0;
#X connect 24 0 23 0;
#X connect 25 0 61 0;
#X connect 26 0 61 1;
#X connect 27 0 26 1;
#X connect 28 0 2 0;
#X connect 29 0 63 0;
#X connect 30 0 31 0;
#X connect 31 0 63 1;
#X connect 32 0 3 0;
#X connect 33 0 32 0;
#X connect 34 0 64 1;
#X connect 35 0 34 0;
#X connect 36 0 64 0;
#X connect 37 0 68 0;
#X connect 38 0 39 1;
#X connect 39 0 68 1;
#X connect 40 0 5 0;
#X connect 41 0 66 0;
#X connect 42 0 66 1;
#X connect 43 0 42 1;
#X connect 44 0 6 0;
#X connect 45 0 67 0;
#X connect 46 0 67 1;
#X connect 47 0 46 1;
#X connect 48 0 60 0;
#X connect 49 0 19 0;
#X connect 49 0 21 0;
#X connect 50 0 0 0;
#X connect 51 0 16 0;
#X connect 58 0 13 1;
#X connect 58 0 13 0;
#X connect 58 0 59 0;
#X connect 58 0 10 0;
#X connect 59 0 27 0;
#X connect 59 0 25 0;
#X connect 59 0 23 1;
#X connect 59 0 29 0;
#X connect 59 0 30 0;
#X connect 59 0 35 0;
#X connect 59 0 36 0;
#X connect 59 0 32 1;
#X connect 59 0 38 0;
#X connect 59 0 37 0;
#X connect 59 0 41 0;
#X connect 59 0 43 0;
#X connect 59 0 47 0;
#X connect 59 0 45 0;
#X connect 59 0 62 0;
#X connect 60 0 6 1;
#X connect 60 0 4 1;
#X connect 60 0 5 1;
#X connect 60 0 3 1;
#X connect 60 0 2 1;
#X connect 60 0 1 1;
#X connect 61 0 24 0;
#X connect 62 0 28 1;
#X connect 63 0 28 0;
#X connect 64 0 33 0;
#X connect 65 0 4 0;
#X connect 66 0 65 0;
#X connect 67 0 44 0;
#X connect 68 0 40 1;
#X restore 394 79 pd highshelf;
#N canvas 513 23 648 537 lowshelf 0;
#X obj 565 381 == 6;
#X obj 165 -23 clip~ 0.001 1;
#X obj 25 412 transistor~;
#X obj 97 412 transistor~;
#X obj 169 413 transistor~;
#X obj 241 413 transistor~;
#X obj 385 413 transistor~;
#X obj 313 413 transistor~;
#X obj 110 206 *~;
#X obj 125 186 sqrt~;
#X obj 125 166 +~;
#X obj 165 149 *~ 2;
#X obj 125 146 *~;
#X obj 177 78 sig~ 1;
#X obj 125 65 *~;
#X obj 140 126 -~;
#X obj 140 106 /~;
#X obj 288 -23 /~ 40;
#X obj 267 2 sig~ 10;
#X obj 125 86 +~;
#X obj 51 77 /~ 6.28319;
#X obj 51 96 sin~;
#X obj 15 181 /~ 6.28319;
#X obj 15 200 cos~;
#X obj 25 384 *~;
#X obj 25 364 +~;
#X obj 25 344 -~;
#X obj 25 304 +~ 1;
#X obj 40 324 *~;
#X obj 55 304 -~ 1;
#X obj 126 366 *~ 2;
#X obj 97 383 *~;
#X obj 97 303 -~ 1;
#X obj 97 363 -~;
#X obj 112 323 +~ 1;
#X obj 112 343 *~;
#X obj 169 383 *~;
#X obj 169 363 -~;
#X obj 169 343 -~;
#X obj 184 323 *~;
#X obj 184 303 -~ 1;
#X obj 169 283 +~ 1;
#X obj 400 364 +~;
#X obj 415 344 +~ 1;
#X obj 415 304 -~ 1;
#X obj 400 324 *~;
#X obj 385 384 +~;
#X obj 241 383 *~ -2;
#X obj 241 323 -~ 1;
#X obj 256 343 *~;
#X obj 271 323 +~ 1;
#X obj 241 363 +~;
#X obj 313 364 +~;
#X obj 313 384 -~;
#X obj 328 344 +~ 1;
#X obj 313 324 *~;
#X obj 328 304 -~ 1;
#X obj 565 349 r \$0-type;
#X obj 15 -46 inlet~ FREQUENCY;
#X obj 165 -46 inlet~ Q;
#X obj 288 -45 inlet~ GAIN;
#X obj 25 442 outlet~ B0;
#X obj 97 442 outlet~ B1;
#X obj 169 442 outlet~ B2;
#X obj 385 442 outlet~ A0;
#X obj 241 442 outlet~ A1;
#X obj 313 442 outlet~ A2;
#X obj 267 24 pow~;
#X obj 267 206 *~ 1;
#X connect 0 0 7 1;
#X connect 0 0 5 1;
#X connect 0 0 6 1;
#X connect 0 0 4 1;
#X connect 0 0 3 1;
#X connect 0 0 2 1;
#X connect 1 0 16 1;
#X connect 2 0 61 0;
#X connect 3 0 62 0;
#X connect 4 0 63 0;
#X connect 5 0 65 0;
#X connect 6 0 64 0;
#X connect 7 0 66 0;
#X connect 8 0 25 1;
#X connect 8 0 37 1;
#X connect 8 0 46 0;
#X connect 8 0 53 1;
#X connect 9 0 8 1;
#X connect 10 0 9 0;
#X connect 11 0 10 1;
#X connect 12 0 10 0;
#X connect 13 0 15 1;
#X connect 13 0 16 0;
#X connect 13 0 19 1;
#X connect 14 0 19 0;
#X connect 15 0 12 1;
#X connect 16 0 15 0;
#X connect 17 0 67 1;
#X connect 18 0 67 0;
#X connect 19 0 12 0;
#X connect 20 0 21 0;
#X connect 21 0 8 0;
#X connect 22 0 23 0;
#X connect 23 0 28 0;
#X connect 23 0 35 1;
#X connect 23 0 39 1;
#X connect 23 0 45 0;
#X connect 23 0 49 0;
#X connect 23 0 55 0;
#X connect 24 0 2 0;
#X connect 25 0 24 0;
#X connect 26 0 25 0;
#X connect 27 0 26 0;
#X connect 28 0 26 1;
#X connect 29 0 28 1;
#X connect 30 0 31 1;
#X connect 31 0 3 0;
#X connect 32 0 33 0;
#X connect 33 0 31 0;
#X connect 34 0 35 0;
#X connect 35 0 33 1;
#X connect 36 0 4 0;
#X connect 37 0 36 0;
#X connect 38 0 37 0;
#X connect 39 0 38 1;
#X connect 40 0 39 0;
#X connect 41 0 38 0;
#X connect 42 0 46 1;
#X connect 43 0 42 1;
#X connect 44 0 45 1;
#X connect 45 0 42 0;
#X connect 46 0 6 0;
#X connect 47 0 5 0;
#X connect 48 0 51 0;
#X connect 49 0 51 1;
#X connect 50 0 49 1;
#X connect 51 0 47 0;
#X connect 52 0 53 0;
#X connect 53 0 7 0;
#X connect 54 0 52 1;
#X connect 55 0 52 0;
#X connect 56 0 55 1;
#X connect 57 0 0 0;
#X connect 58 0 20 0;
#X connect 58 0 22 0;
#X connect 59 0 1 0;
#X connect 60 0 17 0;
#X connect 67 0 14 1;
#X connect 67 0 14 0;
#X connect 67 0 68 0;
#X connect 67 0 11 0;
#X connect 68 0 29 0;
#X connect 68 0 27 0;
#X connect 68 0 24 1;
#X connect 68 0 32 0;
#X connect 68 0 34 0;
#X connect 68 0 30 0;
#X connect 68 0 40 0;
#X connect 68 0 41 0;
#X connect 68 0 36 1;
#X connect 68 0 44 0;
#X connect 68 0 43 0;
#X connect 68 0 48 0;
#X connect 68 0 50 0;
#X connect 68 0 56 0;
#X connect 68 0 54 0;
#X restore 321 79 pd lowshelf;
#N canvas 614 23 614 328 allpass 0;
#X obj 154 224 +~ 1;
#X obj 66 193 sig~ 1;
#X obj 66 219 -~;
#X obj 259 50 max~ 0.01;
#X obj -127 167 /~ 6.28319;
#X obj -127 186 cos~;
#X obj -127 207 *~ -2;
#X obj 59 67 /~ 6.28319;
#X obj 59 86 sin~;
#X obj -253 250 transistor~;
#X obj -173 250 transistor~;
#X obj -91 250 transistor~;
#X obj -10 250 transistor~;
#X obj 154 250 transistor~;
#X obj 66 250 transistor~;
#X obj 240 201 r \$0-type;
#X obj 240 233 == 8;
#X obj 59 -1 inlet~ FREQUENCY;
#X obj 259 1 inlet~ Q;
#X obj -253 280 outlet~ B0;
#X obj -173 280 outlet~ B1;
#X obj -91 279 outlet~ B2;
#X obj -10 279 outlet~ A1;
#X obj 66 279 outlet~ A2;
#X obj 154 279 outlet~ A0;
#X obj 197 4 sig~ 2;
#X obj 197 24 log~;
#X obj 197 44 /~ 2;
#X obj 197 171 sinh~;
#X obj 197 76 *~;
#X obj 197 103 *~;
#X obj 197 131 /~;
#X obj 182 197 *~;
#X connect 0 0 11 0;
#X connect 0 0 13 0;
#X connect 1 0 2 0;
#X connect 2 0 9 0;
#X connect 2 0 14 0;
#X connect 3 0 29 1;
#X connect 4 0 5 0;
#X connect 5 0 6 0;
#X connect 6 0 10 0;
#X connect 6 0 12 0;
#X connect 7 0 8 0;
#X connect 8 0 31 1;
#X connect 8 0 32 0;
#X connect 9 0 19 0;
#X connect 10 0 20 0;
#X connect 11 0 21 0;
#X connect 12 0 22 0;
#X connect 13 0 24 0;
#X connect 14 0 23 0;
#X connect 15 0 16 0;
#X connect 16 0 14 1;
#X connect 16 0 12 1;
#X connect 16 0 13 1;
#X connect 16 0 11 1;
#X connect 16 0 10 1;
#X connect 16 0 9 1;
#X connect 17 0 4 0;
#X connect 17 0 7 0;
#X connect 17 0 30 1;
#X connect 18 0 3 0;
#X connect 25 0 26 0;
#X connect 26 0 27 0;
#X connect 27 0 29 0;
#X connect 28 0 32 1;
#X connect 29 0 30 0;
#X connect 30 0 31 0;
#X connect 31 0 28 0;
#X connect 32 0 0 0;
#X connect 32 0 2 1;
#X restore 473 79 pd allpass;
#N canvas 572 25 527 277 resonant 0;
#X obj 356 176 +~ 1;
#X obj 284 150 sig~ 1;
#X obj 284 176 -~;
#X obj 314 46 max~ 0.01;
#X obj 140 178 *~ -1;
#X obj 68 180 sig~ 0;
#X obj 440 189 == 2;
#X obj 98 147 *~;
#X obj 212 177 *~ -2;
#X obj 299 93 /~;
#X obj 314 69 *~ 2;
#X obj -4 206 transistor~;
#X obj 68 206 transistor~;
#X obj 140 206 transistor~;
#X obj 212 206 transistor~;
#X obj 356 206 transistor~;
#X obj 284 206 transistor~;
#X obj 197 45 /~ 6.28319;
#X obj 197 64 sin~;
#X obj 212 137 /~ 6.28319;
#X obj 212 156 cos~;
#X obj 440 166 r \$0-type;
#X obj 118 8 inlet~ FREQUENCY;
#X obj 314 9 inlet~ Q;
#X obj -4 235 outlet~ B0;
#X obj 68 235 outlet~ B1;
#X obj 140 235 outlet~ B2;
#X obj 212 235 outlet~ A1;
#X obj 284 235 outlet~ A2;
#X obj 356 235 outlet~ A0;
#X connect 0 0 15 0;
#X connect 1 0 2 0;
#X connect 2 0 16 0;
#X connect 3 0 7 0;
#X connect 3 0 10 0;
#X connect 4 0 13 0;
#X connect 5 0 12 0;
#X connect 6 0 16 1;
#X connect 6 0 15 1;
#X connect 6 0 14 1;
#X connect 6 0 13 1;
#X connect 6 0 12 1;
#X connect 6 0 11 1;
#X connect 7 0 4 0;
#X connect 7 0 11 0;
#X connect 8 0 14 0;
#X connect 9 0 7 1;
#X connect 9 0 0 0;
#X connect 9 0 2 1;
#X connect 10 0 9 1;
#X connect 11 0 24 0;
#X connect 12 0 25 0;
#X connect 13 0 26 0;
#X connect 14 0 27 0;
#X connect 15 0 29 0;
#X connect 16 0 28 0;
#X connect 17 0 18 0;
#X connect 18 0 9 0;
#X connect 19 0 20 0;
#X connect 20 0 8 0;
#X connect 21 0 6 0;
#X connect 22 0 19 0;
#X connect 22 0 17 0;
#X connect 23 0 3 0;
#X restore 53 79 pd resonant;
#N canvas 524 23 542 259 bandpass 0;
#X obj 376 171 +~ 1;
#X obj 294 127 sig~ 1;
#X obj 294 172 -~;
#X obj 128 25 max~ 0.01;
#X obj 150 172 *~ -1;
#X obj 78 172 sig~ 0;
#X obj 456 177 == 3;
#X obj 6 194 transistor~;
#X obj 78 194 transistor~;
#X obj 150 194 transistor~;
#X obj 222 194 transistor~;
#X obj 376 194 transistor~;
#X obj 294 194 transistor~;
#X obj 222 172 *~ -2;
#X obj 6 120 /~;
#X obj 128 46 *~ 2;
#X obj 6 72 /~ 6.28319;
#X obj 6 91 sin~;
#X obj 222 116 /~ 6.28319;
#X obj 222 135 cos~;
#X obj 456 155 r \$0-type;
#X obj 6 4 inlet~ FREQUENCY;
#X obj 128 4 inlet~ Q;
#X obj 6 223 outlet~ B0;
#X obj 78 223 outlet~ B1;
#X obj 150 223 outlet~ B2;
#X obj 222 222 outlet~ A1;
#X obj 294 222 outlet~ A2;
#X obj 376 222 outlet~ A0;
#X connect 0 0 11 0;
#X connect 1 0 2 0;
#X connect 2 0 12 0;
#X connect 3 0 15 0;
#X connect 4 0 9 0;
#X connect 5 0 8 0;
#X connect 6 0 12 1;
#X connect 6 0 11 1;
#X connect 6 0 10 1;
#X connect 6 0 9 1;
#X connect 6 0 8 1;
#X connect 6 0 7 1;
#X connect 7 0 23 0;
#X connect 8 0 24 0;
#X connect 9 0 25 0;
#X connect 10 0 26 0;
#X connect 11 0 28 0;
#X connect 12 0 27 0;
#X connect 13 0 10 0;
#X connect 14 0 4 0;
#X connect 14 0 0 0;
#X connect 14 0 2 1;
#X connect 14 0 7 0;
#X connect 15 0 14 1;
#X connect 16 0 17 0;
#X connect 17 0 14 0;
#X connect 18 0 19 0;
#X connect 19 0 13 0;
#X connect 20 0 6 0;
#X connect 21 0 16 0;
#X connect 21 0 18 0;
#X connect 22 0 3 0;
#X restore 126 79 pd bandpass;
#X obj -87 31 *~ 6.28319;
#X obj -87 11 /~ 44100;
#X obj -42 -10 r \$0-fs;
#X obj -87 -30 inlet~ FREQUENCY;
#X obj 189 -30 inlet~ Q/BW/SLOPE;
#X obj 463 -30 inlet~ GAIN;
#X obj 189 32 *~ 1;
#X obj 196 244 outlet~ A1;
#X obj 208 224 outlet~ A2;
#X obj 221 204 outlet~ B0;
#X obj 234 184 outlet~ B1;
#X obj 247 164 outlet~ B2;
#X obj 463 35 *~ 1;
#N canvas 638 218 382 128 unpack 0;
#X obj 3 66 /~;
#X obj 3 94 outlet~;
#X obj 63 66 /~;
#X obj 63 94 outlet~;
#X obj 113 66 /~;
#X obj 113 94 outlet~;
#X obj 173 66 /~;
#X obj 173 94 outlet~;
#X obj 233 66 /~;
#X obj 233 94 outlet~;
#X obj 3 30 *~ -1;
#X obj 63 31 *~ -1;
#X obj 183 7 inlet~ A1;
#X obj 243 7 inlet~ A2;
#X obj 3 7 inlet~ B0;
#X obj 63 7 inlet~ B1;
#X obj 123 7 inlet~ B2;
#X obj 301 34 inlet~ A0;
#X connect 0 0 1 0;
#X connect 2 0 3 0;
#X connect 4 0 5 0;
#X connect 6 0 7 0;
#X connect 8 0 9 0;
#X connect 10 0 0 0;
#X connect 11 0 2 0;
#X connect 12 0 10 0;
#X connect 13 0 11 0;
#X connect 14 0 4 0;
#X connect 15 0 6 0;
#X connect 16 0 8 0;
#X connect 17 0 0 1;
#X connect 17 0 2 1;
#X connect 17 0 4 1;
#X connect 17 0 6 1;
#X connect 17 0 8 1;
#X restore 196 144 pd unpack;
#X text 58 279 converted from filtercoeff.mmb~ to be libpd compatible
&;
#X text 400 279 GPL free;
#X connect 0 0 25 0;
#X connect 0 1 25 1;
#X connect 0 2 25 2;
#X connect 0 3 25 3;
#X connect 0 4 25 4;
#X connect 0 5 25 5;
#X connect 1 0 2 0;
#X connect 4 0 25 0;
#X connect 4 1 25 1;
#X connect 4 2 25 2;
#X connect 4 3 25 3;
#X connect 4 4 25 4;
#X connect 4 5 25 5;
#X connect 5 0 25 0;
#X connect 5 1 25 1;
#X connect 5 2 25 2;
#X connect 5 3 25 3;
#X connect 5 4 25 4;
#X connect 5 5 25 5;
#X connect 6 0 25 0;
#X connect 6 1 25 1;
#X connect 6 2 25 2;
#X connect 6 3 25 3;
#X connect 6 4 25 4;
#X connect 6 5 25 5;
#X connect 7 0 25 0;
#X connect 7 1 25 1;
#X connect 7 2 25 2;
#X connect 7 3 25 3;
#X connect 7 4 25 4;
#X connect 7 5 25 5;
#X connect 8 0 25 0;
#X connect 8 1 25 1;
#X connect 8 2 25 2;
#X connect 8 3 25 3;
#X connect 8 4 25 4;
#X connect 8 5 25 5;
#X connect 9 0 25 0;
#X connect 9 1 25 1;
#X connect 9 2 25 2;
#X connect 9 3 25 3;
#X connect 9 4 25 4;
#X connect 9 5 25 5;
#X connect 10 0 25 0;
#X connect 10 1 25 1;
#X connect 10 2 25 2;
#X connect 10 3 25 3;
#X connect 10 4 25 4;
#X connect 10 5 25 5;
#X connect 11 0 25 0;
#X connect 11 1 25 1;
#X connect 11 2 25 2;
#X connect 11 3 25 3;
#X connect 11 4 25 4;
#X connect 11 5 25 5;
#X connect 12 0 0 0;
#X connect 12 0 4 0;
#X connect 12 0 10 0;
#X connect 12 0 11 0;
#X connect 12 0 5 0;
#X connect 12 0 6 0;
#X connect 12 0 8 0;
#X connect 12 0 7 0;
#X connect 12 0 9 0;
#X connect 13 0 12 0;
#X connect 14 0 13 1;
#X connect 15 0 13 0;
#X connect 16 0 18 0;
#X connect 17 0 24 0;
#X connect 18 0 0 1;
#X connect 18 0 4 1;
#X connect 18 0 10 1;
#X connect 18 0 11 1;
#X connect 18 0 5 1;
#X connect 18 0 6 1;
#X connect 18 0 8 1;
#X connect 18 0 7 1;
#X connect 18 0 9 1;
#X connect 24 0 6 2;
#X connect 24 0 8 2;
#X connect 24 0 7 2;
#X connect 25 0 19 0;
#X connect 25 1 20 0;
#X connect 25 2 21 0;
#X connect 25 3 22 0;
#X connect 25 4 23 0;
