#N canvas 775 284 244 386 10;
#X obj -9 -2 inlet;
#N canvas 394 110 534 737 methods 0;
#X obj -31 4 inlet;
#X obj -31 647 route semi cent phase set mode on;
#X obj -31 674 s \$0-osc1.semi;
#X obj 1 694 s \$0-osc1.cent;
#X obj 34 714 s \$0-osc1.phase;
#X obj 66 674 s \$0-osc1.set;
#X obj 99 694 s \$0-osc1.mode;
#X obj 164 673 print ERROR - invalid osc1 method;
#X obj -6 560 route semi cent phase set mode on;
#X obj 19 472 route semi cent phase set mode on;
#X obj -6 587 s \$0-osc2.semi;
#X obj 26 607 s \$0-osc2.cent;
#X obj 59 627 s \$0-osc2.phase;
#X obj 91 587 s \$0-osc2.set;
#X obj 124 607 s \$0-osc2.mode;
#X obj 189 586 print ERROR - invalid osc2 method;
#X obj 19 499 s \$0-osc3.semi;
#X obj 51 519 s \$0-osc3.cent;
#X obj 84 539 s \$0-osc3.phase;
#X obj 116 499 s \$0-osc3.set;
#X obj 149 519 s \$0-osc3.mode;
#X obj 214 498 print ERROR - invalid osc3 method;
#X obj 44 386 route filter adsr amount;
#X obj 44 412 s \$0-noise.filter;
#X obj 91 432 s \$0-noise.adsr;
#X obj 138 452 s \$0-noise.amount;
#X obj 185 412 print ERROR - invalid noise method;
#X obj 95 306 s \$0-envelope;
#X obj 145 286 s \$0-mix;
#X obj 171 266 s \$0-waveform_length;
#X obj 171 226 route length;
#X obj 240 246 print ERROR - invalid waveform method;
#X obj 70 326 route frequency;
#X obj 157 346 print ERROR - invalid filter method;
#X obj 70 366 s \$0-filter.frequency;
#X obj 196 166 route range;
#X obj 196 206 s \$0-pitchbend.range;
#X obj 259 186 s \$0-pitchbend;
#X obj 272 66 unpack 0 0;
#X obj 272 106 s \$0-note;
#X obj 329 86 s \$0-velocity;
#X obj 7 4 r \$0-methods;
#X obj 131 715 s \$0-osc1.on;
#X obj 156 628 s \$0-osc2.on;
#X obj 181 540 s \$0-osc3.on;
#X obj 221 146 s \$0-pan;
#X obj -31 26 route osc1 osc2 osc3 noise filter envelope adsr mix waveform
pitchbend pan volume;
#X obj 246 126 s \$0-volume;
#X connect 0 0 46 0;
#X connect 1 0 2 0;
#X connect 1 1 3 0;
#X connect 1 2 4 0;
#X connect 1 3 5 0;
#X connect 1 4 6 0;
#X connect 1 5 42 0;
#X connect 1 6 7 0;
#X connect 8 0 10 0;
#X connect 8 1 11 0;
#X connect 8 2 12 0;
#X connect 8 3 13 0;
#X connect 8 4 14 0;
#X connect 8 5 43 0;
#X connect 8 6 15 0;
#X connect 9 0 16 0;
#X connect 9 1 17 0;
#X connect 9 2 18 0;
#X connect 9 3 19 0;
#X connect 9 4 20 0;
#X connect 9 5 44 0;
#X connect 9 6 21 0;
#X connect 22 0 23 0;
#X connect 22 1 24 0;
#X connect 22 2 25 0;
#X connect 22 3 26 0;
#X connect 30 0 29 0;
#X connect 30 1 31 0;
#X connect 32 0 34 0;
#X connect 32 1 33 0;
#X connect 35 0 36 0;
#X connect 35 1 37 0;
#X connect 38 0 39 0;
#X connect 38 1 40 0;
#X connect 41 0 46 0;
#X connect 46 0 1 0;
#X connect 46 1 8 0;
#X connect 46 2 9 0;
#X connect 46 3 22 0;
#X connect 46 4 32 0;
#X connect 46 5 27 0;
#X connect 46 6 27 0;
#X connect 46 7 28 0;
#X connect 46 8 30 0;
#X connect 46 9 35 0;
#X connect 46 10 45 0;
#X connect 46 11 47 0;
#X connect 46 12 38 0;
#X restore -9 21 pd methods;
#N canvas 117 177 417 659 osc1 0;
#X obj 121 600 outlet~;
#X obj 121 580 transistor~;
#X obj -7 -23 r \$0-note;
#X obj -7 30 +;
#X obj 57 13 t b f;
#X obj 56 54 / 100;
#X obj 55 73 t b f;
#X obj -7 100 +;
#X obj 55 103 r \$0-pitchbend;
#X obj 55 125 - 64;
#X obj 107 196 r \$0-pitchbend_range;
#X obj 55 213 * 12;
#X obj 55 147 sel 63;
#X msg 55 169 64;
#X obj 55 235 t b f;
#X obj 55 191 / 64;
#X obj -7 259 +;
#X obj 121 293 line~;
#X obj 97 354 phasor~;
#X obj 165 354 phasor~;
#X obj 97 472 tabread~;
#X obj 165 472 tabread~;
#X obj 165 401 wrap~;
#X obj 121 317 clip~ 0 22000;
#X obj 64 549 *~;
#X obj 92 549 -~;
#N canvas 307 520 225 107 error 0;
#X obj 11 10 inlet;
#X obj 11 56 list trim;
#X obj 11 35 list prepend invalid phase mode;
#X obj 11 77 print SUBTRACTIVE_SYNTH_ERROR;
#X connect 0 0 2 0;
#X connect 1 0 3 0;
#X connect 2 0 1 0;
#X restore 304 469 pd error;
#X obj 222 452 route x - o;
#X obj 165 381 +~;
#X obj 229 364 line~;
#X msg 229 344 \$1 2;
#X obj 56 -9 r \$0-osc1.semi;
#X obj 56 34 r \$0-osc1.cent;
#X obj 229 324 r \$0-osc1.phase;
#X obj 251 395 r \$0-waveform_length;
#X obj 222 431 r \$0-osc1.mode;
#X obj 184 560 r \$0-osc1.on;
#X obj 64 522 gate3~;
#X obj 132 522 gate3~;
#X msg 222 482 1;
#X msg 243 482 2;
#X msg 264 482 3;
#X obj 97 432 *~ 4099;
#X obj 165 431 *~ 4099;
#X obj 46 276 mtof;
#X obj 7 410 r \$0-osc1.set;
#X obj 7 431 lprepend set;
#X connect 1 0 0 0;
#X connect 2 0 3 0;
#X connect 3 0 7 0;
#X connect 4 0 3 0;
#X connect 4 1 3 1;
#X connect 5 0 6 0;
#X connect 6 0 7 0;
#X connect 6 1 7 1;
#X connect 7 0 16 0;
#X connect 8 0 9 0;
#X connect 9 0 12 0;
#X connect 10 0 11 1;
#X connect 11 0 14 0;
#X connect 12 0 13 0;
#X connect 12 1 15 0;
#X connect 13 0 15 0;
#X connect 14 0 16 0;
#X connect 14 1 16 1;
#X connect 15 0 11 0;
#X connect 16 0 44 0;
#X connect 17 0 23 0;
#X connect 18 0 42 0;
#X connect 19 0 28 0;
#X connect 20 0 37 1;
#X connect 21 0 38 1;
#X connect 22 0 43 0;
#X connect 23 0 18 0;
#X connect 23 0 19 0;
#X connect 24 0 1 0;
#X connect 25 0 1 0;
#X connect 27 0 39 0;
#X connect 27 1 40 0;
#X connect 27 2 41 0;
#X connect 27 3 26 0;
#X connect 28 0 22 0;
#X connect 29 0 28 1;
#X connect 30 0 29 0;
#X connect 31 0 4 0;
#X connect 32 0 5 0;
#X connect 33 0 30 0;
#X connect 34 0 42 1;
#X connect 34 0 43 1;
#X connect 35 0 27 0;
#X connect 36 0 1 1;
#X connect 37 0 24 0;
#X connect 37 1 25 0;
#X connect 37 2 1 0;
#X connect 38 0 24 1;
#X connect 38 1 25 1;
#X connect 39 0 37 0;
#X connect 39 0 38 0;
#X connect 40 0 37 0;
#X connect 40 0 38 0;
#X connect 41 0 37 0;
#X connect 41 0 38 0;
#X connect 42 0 20 0;
#X connect 43 0 21 0;
#X connect 44 0 17 0;
#X connect 45 0 46 0;
#X connect 46 0 20 0;
#X connect 46 0 21 0;
#X restore 52 83 pd osc1;
#N canvas 524 217 472 665 osc2 0;
#X obj 131 608 outlet~;
#X obj 131 588 transistor~;
#X obj 3 -13 r \$0-note;
#X obj 3 40 +;
#X obj 67 23 t b f;
#X obj 66 64 / 100;
#X obj 65 83 t b f;
#X obj 3 110 +;
#X obj 65 113 r \$0-pitchbend;
#X obj 65 135 - 64;
#X obj 117 206 r \$0-pitchbend_range;
#X obj 65 223 * 12;
#X obj 65 157 sel 63;
#X msg 65 179 64;
#X obj 65 245 t b f;
#X obj 65 201 / 64;
#X obj 3 269 +;
#X obj 107 362 phasor~;
#X obj 175 362 phasor~;
#X obj 107 480 tabread~;
#X obj 175 480 tabread~;
#X obj 175 409 wrap~;
#X obj 131 325 clip~ 0 22000;
#X obj 74 557 *~;
#X obj 102 557 -~;
#N canvas 307 520 225 107 error 0;
#X obj 11 10 inlet;
#X obj 11 56 list trim;
#X obj 11 35 list prepend invalid phase mode;
#X obj 11 77 print SUBTRACTIVE_SYNTH_ERROR;
#X connect 0 0 2 0;
#X connect 1 0 3 0;
#X connect 2 0 1 0;
#X restore 314 477 pd error;
#X obj 232 460 route x - o;
#X obj 175 389 +~;
#X obj 239 372 line~;
#X msg 239 352 \$1 2;
#X obj 310 399 r \$0-waveform_length;
#X obj 74 530 gate3~;
#X obj 142 530 gate3~;
#X msg 232 490 1;
#X msg 253 490 2;
#X msg 274 490 3;
#X obj 66 1 r \$0-osc2.semi;
#X obj 66 44 r \$0-osc2.cent;
#X obj 239 332 r \$0-osc2.phase;
#X obj 232 439 r \$0-osc2.mode;
#X obj 194 568 r \$0-osc2.on;
#X obj 107 440 *~ 4099;
#X obj 175 439 *~ 4099;
#X obj 131 303 line~;
#X obj 56 286 mtof;
#X obj 11 412 r \$0-osc2.set;
#X obj 11 435 lprepend set;
#X connect 1 0 0 0;
#X connect 2 0 3 0;
#X connect 3 0 7 0;
#X connect 4 0 3 0;
#X connect 4 1 3 1;
#X connect 5 0 6 0;
#X connect 6 0 7 0;
#X connect 6 1 7 1;
#X connect 7 0 16 0;
#X connect 8 0 9 0;
#X connect 9 0 12 0;
#X connect 10 0 11 1;
#X connect 11 0 14 0;
#X connect 12 0 13 0;
#X connect 12 1 15 0;
#X connect 13 0 15 0;
#X connect 14 0 16 0;
#X connect 14 1 16 1;
#X connect 15 0 11 0;
#X connect 16 0 44 0;
#X connect 17 0 41 0;
#X connect 18 0 27 0;
#X connect 19 0 31 1;
#X connect 20 0 32 1;
#X connect 21 0 42 0;
#X connect 22 0 17 0;
#X connect 22 0 18 0;
#X connect 23 0 1 0;
#X connect 24 0 1 0;
#X connect 26 0 33 0;
#X connect 26 1 34 0;
#X connect 26 2 35 0;
#X connect 26 3 25 0;
#X connect 27 0 21 0;
#X connect 28 0 27 1;
#X connect 29 0 28 0;
#X connect 30 0 41 1;
#X connect 30 0 42 1;
#X connect 31 0 23 0;
#X connect 31 1 24 0;
#X connect 31 2 1 0;
#X connect 32 0 23 1;
#X connect 32 1 24 1;
#X connect 33 0 31 0;
#X connect 33 0 32 0;
#X connect 34 0 31 0;
#X connect 34 0 32 0;
#X connect 35 0 31 0;
#X connect 35 0 32 0;
#X connect 36 0 4 0;
#X connect 37 0 5 0;
#X connect 38 0 29 0;
#X connect 39 0 26 0;
#X connect 40 0 1 1;
#X connect 41 0 19 0;
#X connect 42 0 20 0;
#X connect 43 0 22 0;
#X connect 44 0 43 0;
#X connect 45 0 46 0;
#X connect 46 0 19 0;
#X connect 46 0 20 0;
#X restore 102 83 pd osc2;
#N canvas 231 51 430 673 osc3 0;
#X obj 141 623 outlet~;
#X obj 141 603 transistor~;
#X obj 13 -3 r \$0-note;
#X obj 13 50 +;
#X obj 77 33 t b f;
#X obj 76 74 / 100;
#X obj 75 93 t b f;
#X obj 13 120 +;
#X obj 75 123 r \$0-pitchbend;
#X obj 75 145 - 64;
#X obj 127 216 r \$0-pitchbend_range;
#X obj 75 233 * 12;
#X obj 75 167 sel 63;
#X msg 75 189 64;
#X obj 75 255 t b f;
#X obj 75 211 / 64;
#X obj 13 279 +;
#X obj 117 377 phasor~;
#X obj 185 377 phasor~;
#X obj 117 495 tabread~;
#X obj 185 495 tabread~;
#X obj 185 424 wrap~;
#X obj 141 340 clip~ 0 22000;
#X obj 84 572 *~;
#X obj 112 572 -~;
#N canvas 307 520 225 107 error 0;
#X obj 11 10 inlet;
#X obj 11 56 list trim;
#X obj 11 35 list prepend invalid phase mode;
#X obj 11 77 print SUBTRACTIVE_SYNTH_ERROR;
#X connect 0 0 2 0;
#X connect 1 0 3 0;
#X connect 2 0 1 0;
#X restore 324 492 pd error;
#X obj 242 475 route x - o;
#X obj 185 404 +~;
#X obj 249 387 line~;
#X msg 249 367 \$1 2;
#X obj 275 419 r \$0-waveform_length;
#X obj 84 545 gate3~;
#X obj 152 545 gate3~;
#X msg 242 505 1;
#X msg 263 505 2;
#X msg 284 505 3;
#X obj 76 11 r \$0-osc3.semi;
#X obj 76 54 r \$0-osc3.cent;
#X obj 18 427 r \$0-osc3.set;
#X obj 249 347 r \$0-osc3.phase;
#X obj 242 454 r \$0-osc3.mode;
#X obj 204 583 r \$0-osc3.on;
#X obj 117 455 *~ 4099;
#X obj 185 454 *~ 4099;
#X obj 141 313 line~;
#X obj 46 296 mtof;
#X obj 18 450 lprepend set;
#X connect 1 0 0 0;
#X connect 2 0 3 0;
#X connect 3 0 7 0;
#X connect 4 0 3 0;
#X connect 4 1 3 1;
#X connect 5 0 6 0;
#X connect 6 0 7 0;
#X connect 6 1 7 1;
#X connect 7 0 16 0;
#X connect 8 0 9 0;
#X connect 9 0 12 0;
#X connect 10 0 11 1;
#X connect 11 0 14 0;
#X connect 12 0 13 0;
#X connect 12 1 15 0;
#X connect 13 0 15 0;
#X connect 14 0 16 0;
#X connect 14 1 16 1;
#X connect 15 0 11 0;
#X connect 16 0 45 0;
#X connect 17 0 42 0;
#X connect 18 0 27 0;
#X connect 19 0 31 1;
#X connect 20 0 32 1;
#X connect 21 0 43 0;
#X connect 22 0 17 0;
#X connect 22 0 18 0;
#X connect 23 0 1 0;
#X connect 24 0 1 0;
#X connect 26 0 33 0;
#X connect 26 1 34 0;
#X connect 26 2 35 0;
#X connect 26 3 25 0;
#X connect 27 0 21 0;
#X connect 28 0 27 1;
#X connect 29 0 28 0;
#X connect 30 0 42 1;
#X connect 30 0 43 1;
#X connect 31 0 23 0;
#X connect 31 1 24 0;
#X connect 31 2 1 0;
#X connect 32 0 23 1;
#X connect 32 1 24 1;
#X connect 33 0 31 0;
#X connect 33 0 32 0;
#X connect 34 0 31 0;
#X connect 34 0 32 0;
#X connect 35 0 31 0;
#X connect 35 0 32 0;
#X connect 36 0 4 0;
#X connect 37 0 5 0;
#X connect 38 0 46 0;
#X connect 39 0 29 0;
#X connect 40 0 26 0;
#X connect 41 0 1 1;
#X connect 42 0 19 0;
#X connect 43 0 20 0;
#X connect 44 0 22 0;
#X connect 45 0 44 0;
#X connect 46 0 19 0;
#X connect 46 0 20 0;
#X restore 152 83 pd osc3;
#X obj 37 345 outlet~;
#N canvas 442 277 337 210 envelope 0;
#X obj -41 -6 inlet~;
#X obj -41 141 outlet~;
#X obj -41 109 *~;
#X obj -26 79 adsr~;
#X obj 1 49 r \$0-envelope;
#X obj -26 22 r \$0-velocity;
#X text -34 161 You could add a filter envelope here if you wanted.
;
#X connect 0 0 2 0;
#X connect 2 0 1 0;
#X connect 3 0 2 1;
#X connect 4 0 3 1;
#X connect 5 0 3 0;
#X restore 37 224 pd envelope;
#N canvas 432 248 272 220 lowpass 0;
#X obj 7 5 inlet~;
#X obj 7 151 outlet~;
#X obj 58 15 r \$0-filter.frequency;
#X text 13 177 4 [lop~] are used for a steeper slope;
#X obj 7 62 lop~ 1000;
#X obj 7 82 lop~ 1000;
#X obj 7 102 lop~ 1000;
#X obj 7 122 lop~ 1000;
#X connect 0 0 4 0;
#X connect 2 0 4 1;
#X connect 2 0 5 1;
#X connect 2 0 6 1;
#X connect 2 0 7 1;
#X connect 4 0 5 0;
#X connect 5 0 6 0;
#X connect 6 0 7 0;
#X connect 7 0 1 0;
#X restore 37 204 pd lowpass;
#N canvas 524 510 185 341 noise 0;
#X obj 7 292 outlet~;
#X obj 7 12 noise~;
#N canvas 651 23 171 195 lop~ 0;
#X obj 64 10 inlet;
#X obj 13 50 lop~ 1000;
#X obj 13 70 lop~ 1000;
#X obj 13 90 lop~ 1000;
#X obj 13 110 lop~ 1000;
#X obj 13 10 inlet~;
#X obj 13 130 outlet~;
#N canvas 384 23 516 300 expscale 0;
#X obj 14 18 inlet;
#X obj 14 39 / 127;
#X obj 14 106 outlet;
#X obj 14 62 pow 2.5;
#X obj 14 84 * 22050;
#X connect 0 0 1 0;
#X connect 1 0 3 0;
#X connect 3 0 4 0;
#X connect 4 0 2 0;
#X restore 64 30 pd expscale;
#X connect 0 0 7 0;
#X connect 1 0 2 0;
#X connect 2 0 3 0;
#X connect 3 0 4 0;
#X connect 4 0 6 0;
#X connect 5 0 1 0;
#X connect 7 0 1 1;
#X connect 7 0 2 1;
#X connect 7 0 3 1;
#X connect 7 0 4 1;
#X restore 7 62 pd lop~;
#X obj 22 152 adsr~;
#X obj 7 182 *~;
#X obj 22 102 r \$0-velocity;
#X obj 7 263 *~;
#X obj 22 243 line~;
#X msg 22 222 \$1 2;
#X obj 40 195 r \$0-noise.amount;
#X obj 49 132 r \$0-noise.adsr;
#X obj 46 42 r \$0-noise.filter;
#X connect 1 0 2 0;
#X connect 2 0 4 0;
#X connect 3 0 4 1;
#X connect 4 0 6 0;
#X connect 5 0 3 0;
#X connect 6 0 0 0;
#X connect 7 0 6 1;
#X connect 8 0 7 0;
#X connect 9 0 8 0;
#X connect 10 0 3 1;
#X connect 11 0 2 1;
#X restore -4 135 pd noise;
#X obj 37 174 +~;
#N canvas 596 238 450 300 init 0;
#X obj 38 165 outlet;
#X obj 38 55 loadbang;
#X msg 38 88 volume 0.5 \, osc1 on 1 \, osc2 on 1 \, osc3 on 1 \, osc1
mode x \, osc2 mode x \, osc3 mode x \, noise adsr 2 100 0 0 \, noise
amount 1 \, noise filter 300 \, filter frequency 2000 \, mix 1 0.5
0.5 \, adsr 10 80 0.3 1000 \, pan 0.5 0.5 0.5;
#X connect 1 0 2 0;
#X connect 2 0 0 0;
#X restore 30 -2 pd init;
#N canvas 519 271 438 314 pan___ 0;
#X obj 12 6 inlet~;
#X obj 97 5 inlet~;
#X obj 177 5 inlet~;
#X obj 12 246 outlet~;
#X obj 71 246 outlet~;
#X obj 131 246 outlet~;
#X obj 191 246 outlet~;
#X obj 251 246 outlet~;
#X obj 311 246 outlet~;
#X obj 12 186 *~;
#X obj 252 8 r \$0-pan;
#X obj 252 34 unpack 0 0 0;
#X obj 42 186 *~;
#X obj 89 117 line~;
#X obj 42 112 sig~ 1;
#X obj 42 134 -~;
#X obj 89 67 clip 0 1;
#X obj 137 186 *~;
#X obj 167 186 *~;
#X obj 214 117 line~;
#X obj 167 112 sig~ 1;
#X obj 167 134 -~;
#X obj 214 67 clip 0 1;
#X obj 255 193 *~;
#X obj 285 193 *~;
#X obj 332 124 line~;
#X obj 285 119 sig~ 1;
#X obj 285 141 -~;
#X obj 332 74 clip 0 1;
#X msg 332 101 \$1 2;
#X msg 214 92 \$1 2;
#X msg 89 91 \$1 2;
#X connect 0 0 9 0;
#X connect 0 0 12 0;
#X connect 1 0 17 0;
#X connect 1 0 18 0;
#X connect 2 0 23 0;
#X connect 2 0 24 0;
#X connect 9 0 3 0;
#X connect 10 0 11 0;
#X connect 11 0 16 0;
#X connect 11 1 22 0;
#X connect 11 2 28 0;
#X connect 12 0 4 0;
#X connect 13 0 15 1;
#X connect 13 0 12 1;
#X connect 14 0 15 0;
#X connect 15 0 9 1;
#X connect 16 0 31 0;
#X connect 17 0 5 0;
#X connect 18 0 6 0;
#X connect 19 0 21 1;
#X connect 19 0 18 1;
#X connect 20 0 21 0;
#X connect 21 0 17 1;
#X connect 22 0 30 0;
#X connect 23 0 7 0;
#X connect 24 0 8 0;
#X connect 25 0 27 1;
#X connect 25 0 24 1;
#X connect 26 0 27 0;
#X connect 27 0 23 1;
#X connect 28 0 29 0;
#X connect 29 0 25 0;
#X connect 30 0 19 0;
#X connect 31 0 13 0;
#X restore 52 112 pd pan___;
#N canvas 52 465 460 306 mix___ 0;
#X obj 3 -33 inlet~;
#X obj 131 -34 inlet~;
#X obj 256 -35 inlet~;
#X obj 3 235 outlet~;
#X obj 352 -35 r \$0-mix;
#X obj 352 -15 unpack 0 0 0;
#X obj 3 125 *~;
#X obj 131 125 *~;
#X obj 256 125 *~;
#X obj 18 95 line~;
#X obj 146 95 line~;
#X obj 271 95 line~;
#X msg 19 75 \$1 2;
#X msg 146 75 \$1 2;
#X msg 271 75 \$1 2;
#X obj 63 235 outlet~;
#X obj 54 -33 inlet~;
#X obj 181 -34 inlet~;
#X obj 304 -34 inlet~;
#X obj 52 126 *~;
#X obj 184 126 *~;
#X obj 305 124 *~;
#X connect 0 0 6 0;
#X connect 1 0 7 0;
#X connect 2 0 8 0;
#X connect 4 0 5 0;
#X connect 5 0 12 0;
#X connect 5 1 13 0;
#X connect 5 2 14 0;
#X connect 6 0 3 0;
#X connect 7 0 3 0;
#X connect 8 0 3 0;
#X connect 9 0 6 1;
#X connect 9 0 19 0;
#X connect 10 0 7 1;
#X connect 10 0 20 0;
#X connect 11 0 8 1;
#X connect 11 0 21 0;
#X connect 12 0 9 0;
#X connect 13 0 10 0;
#X connect 14 0 11 0;
#X connect 16 0 19 1;
#X connect 17 0 20 1;
#X connect 18 0 21 1;
#X connect 19 0 15 0;
#X connect 20 0 15 0;
#X connect 21 0 15 0;
#X restore 52 134 pd mix___;
#N canvas 442 277 337 210 envelope 0;
#X obj -41 -6 inlet~;
#X obj -41 141 outlet~;
#X obj -41 109 *~;
#X obj -26 79 adsr~;
#X obj 1 49 r \$0-envelope;
#X obj -26 22 r \$0-velocity;
#X text -34 161 You could add a filter envelope here if you wanted.
;
#X connect 0 0 2 0;
#X connect 2 0 1 0;
#X connect 3 0 2 1;
#X connect 4 0 3 1;
#X connect 5 0 3 0;
#X restore 117 224 pd envelope;
#N canvas 432 248 284 230 lowpass 0;
#X obj 17 15 inlet~;
#X obj 17 161 outlet~;
#X obj 68 25 r \$0-filter.frequency;
#X text 23 187 4 [lop~] are used for a steeper slope;
#X obj 17 72 lop~ 1000;
#X obj 17 92 lop~ 1000;
#X obj 17 112 lop~ 1000;
#X obj 17 132 lop~ 1000;
#X connect 0 0 4 0;
#X connect 2 0 4 1;
#X connect 2 0 5 1;
#X connect 2 0 6 1;
#X connect 2 0 7 1;
#X connect 4 0 5 0;
#X connect 5 0 6 0;
#X connect 6 0 7 0;
#X connect 7 0 1 0;
#X restore 117 204 pd lowpass;
#X obj 117 174 +~;
#X obj 102 345 outlet~;
#X obj 125 247 r \$0-volume;
#X obj 73 284 line~;
#X msg 73 264 \$1 2;
#X obj 37 317 *~;
#X obj 102 317 *~;
#N canvas 650 411 402 510 README 0;
#X text 12 123 There are no waveforms in this patch — you need to
put your waveforms (aka arrays) in a higher-level patch that you then
reference in this patch.;
#X text 10 3 Subtractive Synthesis - like sculpting but with audio.
;
#X text 12 216 There is a lowpass filter - this could be replaced with
[autobiquad~] or [autobiquad2~] (or [biquad~] \, [vcf~] or any other
filtering object) to have a more flexible filter \, but a lowpass was
used because it covers 90% of use cases & the implementation is more
efficient \, which is important if you have multiple instances of the
patch going at once.;
#X text 14 304 All parameters are scriptable (at control rates) — this
helps with presets \, envelopes \, & LFOs \, so long as the envelope/lfo
is operating at non-signal rates (minimum wavelength = 1 ms => 1000
hz).;
#X text 11 21 Start with something harmonically rich \, then subtract
parts of it. This synth uses two copies of a waveform with a phase
offset and then subtracts one from the other.;
#X text 12 66 There are three sound generators — each one is a subtractive
synth on its own. Blend them together or pan them for more complex
sounds. Each generator can be toggled on & off.;
#X text 13 368 IMPORTANT: All waveforms are assumed to be 4099 points
long. This can be changed -- 4099 points is 3 more than a power of
2 so the array can be used with tabosc4~.;
#X text 13 169 There is a white noise generator with an envelope &
a filter- this helps generate percussive sounds and gives the existing
synth an interesting texture.;
#X text 15 420 All available methods are shown in the interface file.
;
#X text 16 447 Here's a good overview of subtractive synths: https://documentation.apple.com/en/logicexpress/instruments/index.html#chapter=A%26section=3%26tasks=true
;
#X restore 80 -2 pd README;
#X connect 0 0 1 0;
#X connect 2 0 11 0;
#X connect 3 0 11 1;
#X connect 4 0 11 2;
#X connect 6 0 20 0;
#X connect 7 0 6 0;
#X connect 8 0 9 0;
#X connect 8 0 15 0;
#X connect 9 0 7 0;
#X connect 10 0 1 0;
#X connect 11 0 12 0;
#X connect 11 1 12 1;
#X connect 11 2 12 2;
#X connect 11 3 12 3;
#X connect 11 4 12 4;
#X connect 11 5 12 5;
#X connect 12 0 9 1;
#X connect 12 1 15 1;
#X connect 13 0 21 1;
#X connect 14 0 13 0;
#X connect 15 0 14 0;
#X connect 17 0 19 0;
#X connect 18 0 20 1;
#X connect 18 0 21 0;
#X connect 19 0 18 0;
#X connect 20 0 5 0;
#X connect 21 0 16 0;
