#N canvas 157 183 276 300 10;
#X obj 32 12 inlet;
#X obj 32 38 route one two;
#X obj 32 67 t b b;
#X obj 32 214 *~;
#X obj 32 145 line~;
#X msg 32 113 0 1000;
#X obj 47 178 osc~ 400;
#X obj 126 66 t b b;
#X obj 126 213 *~;
#X obj 126 144 line~;
#X msg 126 112 0 1000;
#X obj 32 90 del 2;
#X obj 126 89 del 2;
#X msg 78 112 1 2;
#X msg 172 111 1 2;
#X obj 141 191 lop~ 200;
#X obj 141 169 phasor~ 167;
#X obj 32 244 dac~;
#X obj 85 74 bng 15 250 50 0 empty empty empty 17 7 0 10 -262144 -1
-1;
#X obj 171 67 bng 15 250 50 0 empty empty empty 17 7 0 10 -262144 -1
-1;
#X connect 0 0 1 0;
#X connect 1 0 2 0;
#X connect 1 0 18 0;
#X connect 1 1 7 0;
#X connect 1 1 19 0;
#X connect 2 0 11 0;
#X connect 2 1 13 0;
#X connect 3 0 17 0;
#X connect 4 0 3 0;
#X connect 5 0 4 0;
#X connect 6 0 3 1;
#X connect 7 0 12 0;
#X connect 7 1 14 0;
#X connect 8 0 17 1;
#X connect 9 0 8 0;
#X connect 10 0 9 0;
#X connect 11 0 5 0;
#X connect 12 0 10 0;
#X connect 13 0 4 0;
#X connect 14 0 9 0;
#X connect 15 0 8 1;
#X connect 16 0 15 0;
