#N canvas 607 186 450 300 10;
#X obj 148 174 *~ 0.3;
#X obj 148 243 dac~;
#X obj 148 129 osc~;
#X obj 148 45 r testInput;
#X floatatom 146 89 5 0 0 0 - - -, f 5;
#X obj 218 94 bng 15 250 50 0 empty empty empty 17 7 0 10 -262144 -1
-1;
#X obj 218 114 s testOutput;
#X floatatom 21 91 5 0 0 0 - - -, f 5;
#X obj 21 110 s testInput;
#X connect 0 0 1 0;
#X connect 0 0 1 1;
#X connect 2 0 0 0;
#X connect 3 0 4 0;
#X connect 3 0 5 0;
#X connect 4 0 2 0;
#X connect 5 0 6 0;
#X connect 7 0 8 0;
